<?xml version="1.0" encoding="UTF-8"?>
<svg xmlns="http://www.w3.org/2000/svg" xmlns:xlink="http://www.w3.org/1999/xlink" width="168.03pt" height="114.11pt" viewBox="0 0 168.03 114.11" version="1.1">
<defs>
<clipPath id="clip1">
  <path d="M 43 75 L 69 75 L 69 114.109375 L 43 114.109375 Z M 43 75 "/>
</clipPath>
<clipPath id="clip2">
  <path d="M 99 0 L 168.03125 0 L 168.03125 68 L 99 68 Z M 99 0 "/>
</clipPath>
<clipPath id="clip3">
  <path d="M 157 99 L 168.03125 99 L 168.03125 104 L 157 104 Z M 157 99 "/>
</clipPath>
</defs>
<g id="surface1">
<path style=" stroke:none;fill-rule:nonzero;fill:rgb(36.468506%,52.941895%,63.136292%);fill-opacity:1;" d="M 40.398438 103.953125 L 33.914063 103.953125 C 33.683594 93.011719 33.054688 82.722656 32.019531 73.082031 L 31.964844 73.082031 L 22.09375 103.953125 L 17.15625 103.953125 L 7.34375 73.082031 L 7.289063 73.082031 C 6.558594 82.339844 6.101563 92.628906 5.910156 103.953125 L 0 103.953125 C 0.382813 90.183594 1.335938 77.269531 2.867188 65.21875 L 10.902344 65.21875 L 20.257813 93.679688 L 20.316406 93.679688 L 29.726563 65.21875 L 37.414063 65.21875 C 39.097656 79.332031 40.089844 92.246094 40.398438 103.953125 "/>
<g clip-path="url(#clip1)" clip-rule="nonzero">
<path style=" stroke:none;fill-rule:nonzero;fill:rgb(36.468506%,52.941895%,63.136292%);fill-opacity:1;" d="M 68.515625 75.375 C 65.875 89.699219 62.394531 100.109375 58.070313 106.605469 C 54.703125 111.609375 51.015625 114.109375 46.996094 114.109375 C 45.925781 114.109375 44.605469 113.785156 43.035156 113.148438 L 43.035156 109.691406 C 43.800781 109.804688 44.703125 109.863281 45.734375 109.863281 C 47.609375 109.863281 49.121094 109.347656 50.269531 108.3125 C 51.644531 107.054688 52.332031 105.636719 52.332031 104.066406 C 52.332031 102.996094 51.796875 100.796875 50.726563 97.46875 L 43.613281 75.375 L 49.980469 75.375 L 55.085938 91.898438 C 56.234375 95.652344 56.710938 98.273438 56.523438 99.765625 C 59.316406 92.304688 61.265625 84.175781 62.375 75.375 "/>
</g>
<path style=" stroke:none;fill-rule:nonzero;fill:rgb(97.253418%,59.608459%,11.372375%);fill-opacity:1;" d="M 154.820313 103.953125 L 136.398438 103.953125 L 136.398438 65.21875 L 142.597656 65.21875 L 142.597656 99.1875 L 154.820313 99.1875 "/>
<path style=" stroke:none;fill-rule:evenodd;fill:rgb(97.253418%,59.608459%,11.372375%);fill-opacity:1;" d="M 108.511719 96.203125 C 106.945313 93.679688 106.160156 89.628906 106.160156 84.042969 C 106.160156 74.285156 109.125 69.40625 115.054688 69.40625 C 118.152344 69.40625 120.429688 70.574219 121.882813 72.90625 C 123.449219 75.433594 124.234375 79.449219 124.234375 84.957031 C 124.234375 94.789063 121.269531 99.707031 115.339844 99.707031 C 112.242188 99.707031 109.964844 98.542969 108.511719 96.203125 M 131.582031 104.886719 L 124.460938 101.378906 C 125.09375 100.855469 125.699219 100.296875 126.242188 99.648438 C 129.265625 96.09375 130.777344 90.832031 130.777344 83.867188 C 130.777344 71.054688 125.746094 64.644531 115.6875 64.644531 C 110.75 64.644531 106.90625 66.269531 104.152344 69.523438 C 101.128906 73.082031 99.617188 78.320313 99.617188 85.246094 C 99.617188 92.054688 100.953125 97.050781 103.632813 100.222656 C 106.082031 103.089844 109.773438 104.527344 114.710938 104.527344 C 116.554688 104.527344 118.246094 104.300781 119.78125 103.847656 L 129.054688 109.242188 "/>
<path style=" stroke:none;fill-rule:nonzero;fill:rgb(97.253418%,59.608459%,11.372375%);fill-opacity:1;" d="M 96.914063 93.21875 C 96.914063 96.503906 95.710938 99.199219 93.304688 101.308594 C 90.894531 103.410156 87.660156 104.464844 83.609375 104.464844 C 79.820313 104.464844 76.148438 103.25 72.589844 100.847656 L 74.253906 97.519531 C 77.316406 99.050781 80.085938 99.8125 82.574219 99.8125 C 84.90625 99.8125 86.730469 99.292969 88.054688 98.269531 C 89.371094 97.234375 90.160156 95.792969 90.160156 93.964844 C 90.160156 91.664063 88.558594 89.699219 85.613281 88.050781 C 82.894531 86.558594 77.46875 83.449219 77.46875 83.449219 C 74.523438 81.300781 73.050781 78.996094 73.050781 75.203125 C 73.050781 72.066406 74.148438 69.53125 76.347656 67.601563 C 78.546875 65.667969 81.390625 64.699219 84.867188 64.699219 C 88.464844 64.699219 91.734375 65.660156 94.679688 67.574219 L 93.183594 70.894531 C 90.664063 69.828125 88.179688 69.292969 85.726563 69.292969 C 83.742188 69.292969 82.210938 69.769531 81.140625 70.730469 C 80.066406 71.679688 79.402344 72.90625 79.402344 74.398438 C 79.402344 76.691406 81.042969 78.683594 84.066406 80.363281 C 86.820313 81.855469 92.382813 85.03125 92.382813 85.03125 C 95.40625 87.171875 96.914063 89.453125 96.914063 93.21875 "/>
<g clip-path="url(#clip2)" clip-rule="nonzero">
<path style=" stroke:none;fill-rule:evenodd;fill:rgb(36.468506%,52.941895%,63.136292%);fill-opacity:1;" d="M 162.597656 52.242188 C 158.851563 52.148438 155.953125 52.523438 153.519531 53.554688 C 152.816406 53.832031 151.695313 53.832031 151.597656 54.722656 C 151.976563 55.097656 152.019531 55.703125 152.351563 56.222656 C 152.910156 57.15625 153.890625 58.417969 154.78125 59.078125 C 155.765625 59.824219 156.746094 60.570313 157.78125 61.226563 C 159.601563 62.355469 161.664063 63.007813 163.4375 64.132813 C 164.472656 64.785156 165.496094 65.628906 166.53125 66.332031 C 167.042969 66.707031 167.371094 67.316406 168.027344 67.546875 L 168.027344 67.40625 C 167.699219 66.984375 167.605469 66.375 167.28125 65.90625 C 166.8125 65.441406 166.34375 65.015625 165.875 64.550781 C 164.515625 62.726563 162.828125 61.136719 161.007813 59.824219 C 159.507813 58.792969 156.230469 57.390625 155.625 55.664063 C 155.625 55.664063 155.578125 55.613281 155.53125 55.566406 C 156.558594 55.472656 157.78125 55.097656 158.761719 54.8125 C 160.351563 54.394531 161.800781 54.488281 163.4375 54.066406 C 164.1875 53.878906 164.9375 53.644531 165.691406 53.414063 L 165.691406 52.988281 C 164.84375 52.148438 164.238281 51.023438 163.347656 50.230469 C 160.964844 48.171875 158.339844 46.160156 155.625 44.472656 C 154.171875 43.535156 152.300781 42.929688 150.753906 42.132813 C 150.195313 41.851563 149.261719 41.710938 148.933594 41.242188 C 148.089844 40.210938 147.621094 38.855469 147.011719 37.640625 C 145.65625 35.066406 144.34375 32.214844 143.175781 29.492188 C 142.332031 27.667969 141.816406 25.847656 140.789063 24.160156 C 135.964844 16.203125 130.726563 11.386719 122.675781 6.65625 C 120.941406 5.671875 118.882813 5.25 116.6875 4.738281 C 115.515625 4.6875 114.34375 4.597656 113.175781 4.550781 C 112.425781 4.222656 111.675781 3.332031 111.019531 2.910156 C 108.351563 1.226563 101.476563 -2.421875 99.507813 2.394531 C 98.246094 5.441406 101.378906 8.433594 102.457031 9.980469 C 103.253906 11.054688 104.285156 12.273438 104.84375 13.488281 C 105.171875 14.285156 105.265625 15.128906 105.59375 15.96875 C 106.339844 18.027344 107.042969 20.324219 108.027344 22.242188 C 108.539063 23.226563 109.101563 24.257813 109.757813 25.140625 C 110.132813 25.660156 110.785156 25.890625 110.929688 26.734375 C 110.273438 27.667969 110.222656 29.074219 109.851563 30.246094 C 108.164063 35.535156 108.820313 42.085938 111.207031 45.972656 C 111.953125 47.140625 113.734375 49.714844 116.121094 48.730469 C 118.230469 47.890625 117.761719 45.222656 118.371094 42.882813 C 118.507813 42.316406 118.414063 41.945313 118.695313 41.570313 L 118.695313 41.667969 C 119.351563 42.976563 120.007813 44.234375 120.617188 45.550781 C 122.066406 47.839844 124.59375 50.230469 126.703125 51.820313 C 127.820313 52.664063 128.710938 54.113281 130.117188 54.628906 L 130.117188 54.488281 L 130.023438 54.488281 C 129.742188 54.066406 129.320313 53.878906 128.945313 53.554688 C 128.105469 52.710938 127.171875 51.679688 126.511719 50.746094 C 124.546875 48.125 122.8125 45.222656 121.273438 42.226563 C 120.519531 40.773438 119.867188 39.183594 119.257813 37.730469 C 118.976563 37.171875 118.976563 36.328125 118.507813 36.046875 C 117.804688 37.078125 116.777344 37.96875 116.265625 39.226563 C 115.375 41.242188 115.28125 43.722656 114.953125 46.296875 C 114.765625 46.347656 114.859375 46.296875 114.765625 46.390625 C 113.269531 46.015625 112.753906 44.472656 112.191406 43.164063 C 110.785156 39.839844 110.550781 34.503906 111.769531 30.664063 C 112.097656 29.683594 113.503906 26.597656 112.941406 25.660156 C 112.65625 24.765625 111.722656 24.257813 111.207031 23.550781 C 110.601563 22.660156 109.941406 21.539063 109.523438 20.558594 C 108.402344 17.9375 107.835938 15.03125 106.621094 12.414063 C 106.0625 11.195313 105.078125 9.929688 104.285156 8.808594 C 103.390625 7.546875 102.410156 6.65625 101.707031 5.160156 C 101.476563 4.644531 101.148438 3.800781 101.519531 3.242188 C 101.613281 2.867188 101.800781 2.726563 102.175781 2.632813 C 102.78125 2.117188 104.515625 2.769531 105.121094 3.050781 C 106.855469 3.75 108.308594 4.410156 109.757813 5.390625 C 110.410156 5.859375 111.113281 6.75 111.953125 6.984375 L 112.941406 6.984375 C 114.4375 7.308594 116.121094 7.074219 117.527344 7.5 C 120.007813 8.292969 122.253906 9.464844 124.265625 10.726563 C 130.394531 14.613281 135.453125 20.136719 138.867188 26.734375 C 139.429688 27.808594 139.664063 28.792969 140.179688 29.914063 C 141.160156 32.214844 142.378906 34.554688 143.359375 36.796875 C 144.34375 38.996094 145.28125 41.242188 146.6875 43.070313 C 147.386719 44.050781 150.195313 44.566406 151.460938 45.082031 C 152.394531 45.5 153.847656 45.875 154.691406 46.390625 C 156.28125 47.371094 157.871094 48.496094 159.371094 49.574219 C 160.117188 50.136719 162.457031 51.304688 162.597656 52.242188 "/>
</g>
<path style=" stroke:none;fill-rule:evenodd;fill:rgb(36.468506%,52.941895%,63.136292%);fill-opacity:1;" d="M 114.859375 11.570313 C 114.0625 11.570313 113.503906 11.664063 112.9375 11.804688 L 112.9375 11.898438 L 113.03125 11.898438 C 113.410156 12.644531 114.0625 13.164063 114.527344 13.820313 C 114.90625 14.566406 115.234375 15.3125 115.605469 16.0625 C 115.652344 16.015625 115.699219 15.96875 115.699219 15.96875 C 116.359375 15.503906 116.6875 14.753906 116.6875 13.628906 C 116.402344 13.300781 116.359375 12.972656 116.121094 12.644531 C 115.84375 12.179688 115.234375 11.945313 114.859375 11.570313 "/>
<g clip-path="url(#clip3)" clip-rule="nonzero">
<path style=" stroke:none;fill-rule:nonzero;fill:rgb(97.253418%,59.608459%,11.372375%);fill-opacity:1;" d="M 159.242188 103.949219 L 160.269531 103.949219 L 160.269531 100.007813 L 161.613281 100.007813 L 161.613281 99.203125 L 157.847656 99.203125 L 157.847656 100.007813 L 159.242188 100.007813 Z M 167.058594 103.949219 L 168.027344 103.949219 L 168.027344 99.203125 L 166.570313 99.203125 L 165.386719 102.4375 L 164.09375 99.203125 L 162.691406 99.203125 L 162.691406 103.949219 L 163.609375 103.949219 L 163.609375 100.339844 L 163.660156 100.339844 L 165.011719 103.949219 L 165.710938 103.949219 L 167.058594 100.339844 "/>
</g>
</g>
</svg>
